# xmcd CD database file
#
# Track frame offsets:
#	150
#	19896
#	37634
#	56328
#	71334
#	90005
#	104880
#	128316
#	144562
#	159333
#	176234
#
# Disc length: 2461 seconds
#
# Revision: 0
# Processed by: cddbd v1.5.2PL0 Copyright (c) Steve Scherf et al.
# Submitted via: CDex 1.51
#
DISCID=80099b0b
DTITLE=The Mickeys - Walk Along
DYEAR=2007
DGENRE=Country
TTITLE0=Caroline
TTITLE1=Walk Along
TTITLE2=I Believe
TTITLE3=Greatest Thing
TTITLE4=Going Home
TTITLE5=Feel The Way I Do
TTITLE6=The River
TTITLE7=Take It Slow
TTITLE8=Stay With Me
TTITLE9=Standing In The Rain
TTITLE10=Alright For Now
EXTD=YEAR: 2007
EXTT0=
EXTT1=
EXTT2=
EXTT3=
EXTT4=
EXTT5=
EXTT6=
EXTT7=
EXTT8=
EXTT9=
EXTT10=
PLAYORDER=
